<svg width="42" height="70" viewBox="0 0 42 70" fill="none" xmlns="http://www.w3.org/2000/svg">
<path fill-rule="evenodd" clip-rule="evenodd" d="M33.2888 1.55589C38.4825 0.499303 41.971 3.95033 41.971 10.1382C41.971 16.1965 38.2485 21.3498 33.1013 22.3916C32.1652 22.5927 31.1997 22.6133 30.2559 22.4529V40.3781C30.2559 48.9041 23.7809 56.5497 15.82 58.1665L14.4339 58.4477C6.4754 60.0668 0.000427246 55.0529 0.000427246 46.5269V21.4695C0.000427246 9.37757 9.58622 8.14244 9.58622 8.14244C9.62656 8.13318 9.66525 8.12228 9.70333 8.11155C9.74577 8.0996 9.78747 8.08787 9.82982 8.07884C15.0235 7.02471 18.5119 10.4733 18.5119 16.6612C18.5119 22.7194 14.7896 27.8728 9.6593 28.9146C8.72331 29.1158 7.75773 29.1366 6.81401 28.9758V45.1425C6.81401 49.6501 10.2366 52.6218 14.4437 51.7657L15.8298 51.4845C20.0491 50.6286 23.4595 46.2676 23.4595 41.7599V14.9467C23.4595 2.8546 33.0452 1.61703 33.0452 1.61703C33.0902 1.60799 33.1333 1.5962 33.1758 1.58458C33.2134 1.57426 33.251 1.56392 33.2888 1.55589ZM9.36455 22.4602C11.2159 22.0932 12.4339 20.3054 12.4339 17.9354C12.4339 15.5875 11.25 14.3132 9.36455 14.6947C7.47905 15.0763 6.26103 16.8568 6.26103 19.1902C6.26103 21.5234 7.51315 22.827 9.36455 22.4602ZM29.7321 12.6623C29.7321 14.9931 30.9795 16.309 32.8358 15.9323C34.7018 15.5532 35.9051 13.7555 35.9051 11.4076C35.9051 9.05961 34.7212 7.78535 32.8358 8.1669C30.9503 8.54844 29.7321 10.3314 29.7321 12.6623ZM31.4106 56.5254C30.8002 56.193 30.0836 56.1164 29.417 56.3119C28.7504 56.5075 28.1878 56.9595 27.8516 57.5696C27.7225 57.8142 24.6215 63.283 17.7104 63.5985C17.3659 63.6146 17.0278 63.6986 16.7156 63.8458C16.4035 63.9931 16.1232 64.2005 15.8909 64.4565C15.6586 64.7126 15.4787 65.0118 15.3617 65.3377C15.2446 65.6633 15.1926 66.0091 15.2086 66.3549C15.2246 66.7009 15.3083 67.0402 15.4549 67.3537C15.6015 67.6671 15.8082 67.9485 16.0631 68.1818C16.3181 68.415 16.6163 68.5956 16.9407 68.7131C17.2652 68.8307 17.6096 68.8828 17.954 68.8669C27.9027 68.4119 32.2901 60.4214 32.4728 60.0815C32.7999 59.4682 32.8718 58.7498 32.6727 58.0834C32.4737 57.4168 32.0199 56.8568 31.4106 56.5254Z" fill="#F23D75"/>
</svg>
